<?xml version="1.0" encoding="UTF-8" standalone="no"?>
<svg width="15px" height="15px" viewBox="0 0 15 15" version="1.1" xmlns="http://www.w3.org/2000/svg" xmlns:xlink="http://www.w3.org/1999/xlink">
    <!-- Generator: Sketch 3.6.1 (26313) - http://www.bohemiancoding.com/sketch -->
    <title>arrow-back</title>
    <desc>Created with Sketch.</desc>
    <defs></defs>
    <g id="Docs" stroke="none" stroke-width="1" fill="none" fill-rule="evenodd">
        <g id="arrow-back" fill="#FFFFFF">
            <g id="Group-2" transform="translate(7.500000, 7.500000) rotate(-270.000000) translate(-7.500000, -7.500000) ">
                <path d="M7.5,13.501351 C10.8144546,13.501351 13.501351,10.8144546 13.501351,7.5 C13.501351,4.18554536 10.8144546,1.498649 7.5,1.498649 C4.18554536,1.498649 1.498649,4.18554536 1.498649,7.5 C1.498649,10.8144546 4.18554536,13.501351 7.5,13.501351 L7.5,13.501351 Z M7.5,15 L7.5,15 C3.35786438,15 0,11.6421356 0,7.5 C0,3.35786438 3.35786438,0 7.5,0 C11.6421356,0 15,3.35786438 15,7.5 C15,11.6421356 11.6421356,15 7.5,15 L7.5,15 Z" id="Oval-1"></path>
                <path d="M8.30861086,8.60718729 L8.30861086,3.80597015 L6.76255905,3.80597015 L6.76255905,8.66077049 L5.57083566,7.4690471 L4.47761194,8.56227082 L6.41556963,10.5002285 L6.36723082,10.5485673 L7.46045454,11.641791 L7.50879335,11.5934522 L7.55713216,11.641791 L8.65035588,10.5485673 L8.60201707,10.5002285 L10.5399748,8.56227082 L9.44675104,7.4690471 L8.30861086,8.60718729 Z" id="Combined-Shape"></path>
            </g>
        </g>
    </g>
</svg>