<?xml version="1.0" encoding="UTF-8" standalone="no"?>
<svg width="229px" height="18px" viewBox="0 0 229 18" version="1.1" xmlns="http://www.w3.org/2000/svg" xmlns:xlink="http://www.w3.org/1999/xlink">
    <!-- Generator: Sketch 3.6.1 (26313) - http://www.bohemiancoding.com/sketch -->
    <title>logo</title>
    <desc>Created with Sketch.</desc>
    <defs></defs>
    <g id="Docs" stroke="none" stroke-width="1" fill="none" fill-rule="evenodd">
        <g id="logo">
            <g id="Group-Copy">
                <path d="M7.73733075,12.632 C11.2733308,12.632 13.7433308,10.552 13.7433308,6.834 C13.7433308,3.116 11.2733308,1.036 7.73733075,1.036 L0.24933075,1.036 L0.24933075,17 L5.21533075,17 L5.21533075,12.632 L7.73733075,12.632 Z M8.88133075,6.834 C8.88133075,7.822 8.36133075,8.446 7.06133075,8.446 L5.21533075,8.446 L5.21533075,5.222 L7.06133075,5.222 C8.36133075,5.222 8.88133075,5.846 8.88133075,6.834 L8.88133075,6.834 Z M31.7786646,9.018 C31.7786646,4.234 28.5026646,0.776 23.7186646,0.776 C18.9346646,0.776 15.6846646,4.234 15.6846646,9.018 C15.6846646,13.776 18.9346646,17.26 23.7186646,17.26 C28.5026646,17.26 31.7786646,13.776 31.7786646,9.018 L31.7786646,9.018 Z M26.7086646,9.018 C26.7086646,11.41 25.4866646,12.866 23.7186646,12.866 C21.9506646,12.866 20.7546646,11.41 20.7546646,9.018 C20.7546646,6.626 21.9506646,5.17 23.7186646,5.17 C25.4866646,5.17 26.7086646,6.626 26.7086646,9.018 L26.7086646,9.018 Z M34.0839985,17 L45.9919985,17 L45.9919985,12.684 L39.1279985,12.684 L39.1279985,1.036 L34.0839985,1.036 L34.0839985,17 Z M53.6273323,6.73 L50.7673323,1.036 L45.3073323,1.036 L50.9493323,11.748 L50.9493323,17 L56.0193323,17 L56.0193323,11.748 L61.7393323,1.036 L56.4873323,1.036 L53.6273323,6.73 Z M61.9906662,12.086 C62.5366662,15.336 65.2666662,17.26 69.3486662,17.26 C72.9366662,17.26 75.9006662,15.362 75.9006662,11.93 C75.9006662,9.434 74.4706662,7.9 71.6106662,7.224 L68.2826662,6.444 C67.7886662,6.34 67.3986662,6.132 67.3986662,5.638 C67.3986662,5.04 67.9966662,4.728 68.8806662,4.728 C69.9466662,4.728 70.5446662,5.222 70.8046662,5.95 L75.7186662,5.95 C75.3286662,3.116 73.0406662,0.776 68.8546662,0.776 C65.1626662,0.776 62.3026662,2.83 62.3026662,6.21 C62.3026662,8.992 64.0706662,10.24 66.5146662,10.734 L69.7906662,11.41 C70.4146662,11.54 70.8306662,11.696 70.8306662,12.242 C70.8306662,12.944 70.1286662,13.282 69.2186662,13.282 C68.1786662,13.282 67.4766662,12.866 67.2426662,12.086 L61.9906662,12.086 Z M88.346,1.036 L88.346,6.782 L83.276,6.782 L83.276,1.036 L78.232,1.036 L78.232,17 L83.276,17 L83.276,11.072 L88.346,11.072 L88.346,17 L93.39,17 L93.39,1.036 L88.346,1.036 Z M101.363334,1.036 L95.3313338,17 L100.271334,17 L101.103334,14.686 L106.719334,14.686 L107.551334,17 L112.647334,17 L106.615334,1.036 L101.363334,1.036 Z M103.911334,6.938 L105.237334,10.604 L102.585334,10.604 L103.911334,6.938 Z M122.076668,12.632 C125.612668,12.632 128.082668,10.552 128.082668,6.834 C128.082668,3.116 125.612668,1.036 122.076668,1.036 L114.588668,1.036 L114.588668,17 L119.554668,17 L119.554668,12.632 L122.076668,12.632 Z M123.220668,6.834 C123.220668,7.822 122.700668,8.446 121.400668,8.446 L119.554668,8.446 L119.554668,5.222 L121.400668,5.222 C122.700668,5.222 123.220668,5.846 123.220668,6.834 L123.220668,6.834 Z M130.518002,1.036 L130.518002,17 L142.530002,17 L142.530002,12.684 L135.484002,12.684 L135.484002,10.994 L141.932002,10.994 L141.932002,6.834 L135.484002,6.834 L135.484002,5.326 L142.530002,5.326 L142.530002,1.036 L130.518002,1.036 Z M151.309335,12.424 L153.987335,17 L159.525335,17 L156.223335,11.67 C157.913335,10.786 158.953335,9.122 158.953335,6.86 C158.953335,3.168 156.457335,1.036 152.947335,1.036 L145.173335,1.036 L145.173335,17 L150.139335,17 L150.139335,12.424 L151.309335,12.424 Z M150.139335,5.222 L152.271335,5.222 C153.571335,5.222 154.065335,5.872 154.065335,6.86 C154.065335,7.822 153.571335,8.472 152.271335,8.472 L150.139335,8.472 L150.139335,5.222 Z" id="POLYSHAPER-Copy" fill="#3769A3"></path>
                <path d="M167.798,12.684 L167.798,5.326 L169.02,5.326 C171.256,5.326 172.53,6.756 172.53,9.018 C172.53,11.254 171.256,12.684 169.02,12.684 L167.798,12.684 Z M162.858,17 L169.28,17 C174.454,17 177.496,13.88 177.496,9.018 C177.496,4.156 174.454,1.036 169.28,1.036 L162.858,1.036 L162.858,17 Z M195.401334,9.018 C195.401334,4.234 192.125334,0.776 187.341334,0.776 C182.557334,0.776 179.307334,4.234 179.307334,9.018 C179.307334,13.776 182.557334,17.26 187.341334,17.26 C192.125334,17.26 195.401334,13.776 195.401334,9.018 L195.401334,9.018 Z M190.331334,9.018 C190.331334,11.41 189.109334,12.866 187.341334,12.866 C185.573334,12.866 184.377334,11.41 184.377334,9.018 C184.377334,6.626 185.573334,5.17 187.341334,5.17 C189.109334,5.17 190.331334,6.626 190.331334,9.018 L190.331334,9.018 Z M197.212668,9.018 C197.212668,13.802 200.462668,17.26 205.116668,17.26 C209.328668,17.26 211.694668,14.712 212.240668,11.436 L207.196668,11.436 C206.910668,12.32 206.182668,12.866 205.116668,12.866 C203.296668,12.866 202.282668,11.202 202.282668,9.018 C202.282668,6.808 203.296668,5.17 205.116668,5.17 C206.182668,5.17 206.910668,5.716 207.196668,6.574 L212.240668,6.574 C211.694668,3.324 209.328668,0.776 205.116668,0.776 C200.462668,0.776 197.212668,4.234 197.212668,9.018 L197.212668,9.018 Z M214.026002,12.086 C214.572002,15.336 217.302002,17.26 221.384002,17.26 C224.972002,17.26 227.936002,15.362 227.936002,11.93 C227.936002,9.434 226.506002,7.9 223.646002,7.224 L220.318002,6.444 C219.824002,6.34 219.434002,6.132 219.434002,5.638 C219.434002,5.04 220.032002,4.728 220.916002,4.728 C221.982002,4.728 222.580002,5.222 222.840002,5.95 L227.754002,5.95 C227.364002,3.116 225.076002,0.776 220.890002,0.776 C217.198002,0.776 214.338002,2.83 214.338002,6.21 C214.338002,8.992 216.106002,10.24 218.550002,10.734 L221.826002,11.41 C222.450002,11.54 222.866002,11.696 222.866002,12.242 C222.866002,12.944 222.164002,13.282 221.254002,13.282 C220.214002,13.282 219.512002,12.866 219.278002,12.086 L214.026002,12.086 Z" id="DOCS-Copy" fill="#FFFFFF"></path>
            </g>
        </g>
    </g>
</svg>